<?xml version="1.0" encoding="utf-8"?>
<!-- Generator: Adobe Illustrator 16.0.0, SVG Export Plug-In . SVG Version: 6.00 Build 0)  -->
<!DOCTYPE svg PUBLIC "-//W3C//DTD SVG 1.1//EN" "http://www.w3.org/Graphics/SVG/1.1/DTD/svg11.dtd">
<svg version="1.1" id="圖層_1" xmlns="http://www.w3.org/2000/svg" xmlns:xlink="http://www.w3.org/1999/xlink" x="0px" y="0px"
	 width="498.15px" height="85px" viewBox="15.108 0 498.15 85" enable-background="new 15.108 0 498.15 85" xml:space="preserve">
<path fill="#FF8300" d="M132.896,51.625l-0.001,0.873c0,1.229,1.189,2.22,2.654,2.223c1.467,0.002,2.653-0.996,2.653-2.223
	l0.002-0.872c0-1.226-1.191-2.219-2.657-2.217C134.084,49.404,132.895,50.402,132.896,51.625"/>
<path fill="#FF8300" d="M89.355,43.318l-0.003,0.873c0,1.229,1.146,2.222,2.557,2.222c1.406,0.004,2.55-0.995,2.551-2.222V43.32
	c0-1.224-1.146-2.219-2.555-2.218C90.495,41.1,89.353,42.098,89.355,43.318"/>
<path fill="#FF8300" d="M95.272,43.318l-0.001,0.873c0,1.229,1.146,2.222,2.551,2.222c1.409,0.004,2.555-0.995,2.555-2.222
	l0.002-0.871c-0.002-1.224-1.147-2.219-2.56-2.218C96.413,41.1,95.271,42.098,95.272,43.318"/>
<path fill="#FF8300" d="M101.187,43.318v0.873c0,1.229,1.145,2.222,2.555,2.222c1.409,0.004,2.553-0.995,2.553-2.222V43.32
	c0-1.224-1.146-2.219-2.557-2.218C102.33,41.1,101.187,42.098,101.187,43.318"/>
<path fill="#FF8300" d="M190.238,51.516l-0.7,0.515c-0.981,0.721-1.1,2.223-0.271,3.349c0.828,1.127,2.299,1.454,3.277,0.732
	l0.698-0.512c0.979-0.725,1.101-2.226,0.269-3.351C192.683,51.122,191.214,50.794,190.238,51.516"/>
<path fill="#403F41" d="M174.694,27.209l-3.322-4.221c-0.812-1.076-2.444-1.214-3.638-0.309c-1.198,0.902-1.516,2.505-0.698,3.585
	l3.32,4.217c0.808,1.08,2.439,1.218,3.638,0.315C175.188,29.896,175.506,28.286,174.694,27.209"/>
<path fill="#403F41" d="M193.077,60.723l3.32,4.221c0.814,1.076,2.446,1.217,3.64,0.31c1.198-0.903,1.515-2.506,0.697-3.586
	l-3.319-4.362c-0.809-1.078-2.439-1.218-3.636-0.314C192.584,57.891,192.264,59.646,193.077,60.723"/>
<path fill="#403F41" d="M169.316,22.081c-1.509,0-2.733,1.223-2.733,2.731v18.917v19.39c0,1.51,1.226,2.731,2.733,2.731
	c1.509,0,2.734-1.223,2.734-2.731v-19.39V24.812C172.051,23.304,170.824,22.081,169.316,22.081"/>
<path fill="#403F41" d="M198.456,22.081c-1.51,0-2.736,1.223-2.736,2.731v18.917v19.39c0,1.51,1.228,2.731,2.736,2.731
	c1.507,0,2.731-1.223,2.731-2.731v-19.39V24.812C201.188,23.304,199.963,22.081,198.456,22.081"/>
<path fill="#403F41" d="M174.495,35.918l10.719,14.454c0.798,1.085,2.426,1.242,3.634,0.356c1.21-0.889,1.545-2.487,0.745-3.576
	L178.77,32.64c-0.797-1.091-2.425-1.246-3.638-0.36C173.925,33.162,173.7,34.827,174.495,35.918"/>
<path fill="#403F41" d="M223.518,47.062l0.008-0.008L223.518,47.062z"/>
<path fill="#403F41" d="M141.425,54.802h10.411c1.357,0.001,2.458-1.226,2.461-2.735c0-1.508-1.098-2.738-2.457-2.74h-10.404
	c-1.36-0.003-2.462,1.225-2.465,2.734C138.965,53.568,140.069,54.799,141.425,54.802"/>
<path fill="#403F41" d="M75.087,46.493h11.07c1.356,0.001,2.456-1.226,2.461-2.734c0.001-1.51-1.097-2.737-2.458-2.738H75.096
	c-1.359-0.006-2.463,1.221-2.467,2.732C72.625,45.261,73.729,46.491,75.087,46.493"/>
<path fill="#403F41" d="M103.84,60.309h-1.824v-0.002H86.318v-32.81h15.697v-0.008h3.266c1.153,0,2.007,0.208,2.979,0.871
	c1.593,1.089,2.403,3.024,2.408,5.751c0.01,4.965-1.527,6.683-2.466,7.413c-0.36,0.281-1.178,0.942-1.178,2.375V43.9
	c0,1.726,1.188,2.384,1.721,2.635c0.332,0.154,3.24,1.023,3.24,6.037C111.986,59.792,105.75,60.309,103.84,60.309 M113.599,43.902
	c1.184-1.856,2.629-5.721,2.629-9.802c0-8.529-5.759-12.151-10.582-12.151h-3.63h-3.479H83.566c-1.522,0-2.758,1.243-2.758,2.773
	v38.355c0,1.53,1.234,2.771,2.758,2.771h12.604h5.847h1.824c9.468,0,13.705-6.617,13.705-13.275
	C117.545,47.691,115.367,45.666,113.599,43.902"/>
<path fill="#FF8300" d="M226.229,37.528l0.608,0.626c0.854,0.879,2.4,0.758,3.453-0.263c1.049-1.023,1.204-2.566,0.347-3.442
	l-0.604-0.626c-0.856-0.875-2.404-0.758-3.45,0.267C225.529,35.11,225.374,36.654,226.229,37.528"/>
<path fill="#403F41" d="M242.311,65.807c-0.771,0-1.544-0.326-2.088-0.961l-14.276-16.943c-0.991-1.155-0.857-2.896,0.298-3.883
	c1.157-0.992,2.896-0.858,3.886,0.297l14.272,16.944c0.99,1.153,0.858,2.895-0.298,3.884
	C243.582,65.592,242.947,65.807,242.311,65.807"/>
<path fill="#403F41" d="M212.854,21.951c-1.522,0-2.758,1.234-2.758,2.753v19.051v19.298c0,1.521,1.234,2.754,2.758,2.754
	c1.518,0,2.75-1.232,2.75-2.754V43.755V24.704C215.604,23.186,214.37,21.951,212.854,21.951"/>
<path fill="#403F41" d="M234.554,33.85l7.453-7.271c0.972-0.944,0.904-2.593-0.146-3.675c-1.054-1.081-2.697-1.197-3.671-0.248
	l-7.451,7.265c-0.978,0.945-0.908,2.594,0.145,3.68C231.931,34.683,233.576,34.792,234.554,33.85"/>
<path fill="#403F41" d="M226.137,42.057l-7.454,7.266c-0.971,0.948-2.614,0.837-3.673-0.24c-1.055-1.082-1.127-2.728-0.153-3.677
	l7.452-7.266c0.969-0.953,2.615-0.842,3.67,0.238C227.034,39.454,227.105,41.104,226.137,42.057"/>
<path fill="#FF8300" d="M42.479,56.62c4.024-0.006,9.558-1.964,10.323-6.166c0.046-0.24,0.095-0.624,0.092-0.802
	c-0.191-0.855-1.019-0.281-1.424-0.104c-0.587,0.262-5.169,1.456-8.991,1.456c-3.82,0-8.404-1.194-8.993-1.456
	c-0.401-0.178-1.229-0.752-1.421,0.104c-0.003,0.178,0.048,0.562,0.09,0.802C32.92,54.656,38.454,56.614,42.479,56.62"/>
<path fill="#403F41" d="M37.318,40.759l0.003-1.195c-0.003-1.677-1.567-3.039-3.498-3.034c-1.925-0.005-3.491,1.359-3.487,3.032
	l-0.004,1.197c0,1.68,1.566,3.037,3.496,3.037C35.757,43.8,37.318,42.435,37.318,40.759"/>
<path fill="#403F41" d="M54.626,40.759l0.003-1.195c-0.003-1.677-1.57-3.039-3.5-3.034c-1.925-0.005-3.492,1.359-3.486,3.032
	l-0.006,1.197c0,1.68,1.568,3.037,3.496,3.037C53.062,43.8,54.626,42.435,54.626,40.759"/>
<path fill="#FF8300" d="M59.803,23.662c-0.794,0-1.555,0.303-2.086,0.829c-1.158,1.149-1.164,3.028-0.016,4.188
	c4.344,4.38,6.6,10.424,6.186,16.584c-0.389,5.715-2.979,10.939-7.298,14.711c-3.916,3.414-8.932,5.295-14.124,5.295
	c-0.479,0-0.966-0.018-1.447-0.047c-8.098-0.574-15.104-5.552-18.294-12.99c-1.021-2.397-1.593-4.941-1.696-7.557
	c-0.064-1.597-1.365-2.848-2.96-2.848l-0.117,0.003c-1.627,0.064-2.903,1.446-2.843,3.076c0.134,3.342,0.864,6.589,2.178,9.655
	C21.349,64.05,30.26,70.395,40.54,71.119l0.088,0.007c0.62,0.042,1.256,0.063,1.893,0.063c6.588,0,12.967-2.4,17.961-6.756
	c5.514-4.809,8.817-11.475,9.312-18.771c0.534-7.85-2.342-15.561-7.891-21.154C61.369,23.972,60.604,23.662,59.803,23.662"/>
<path fill="#403F41" d="M41.805,19.277c-0.027,0.263-0.021,0.53,0.025,0.802c0.017,0.077,0.029,0.152,0.046,0.225
	c0.304,1.291,1.395,2.245,2.717,2.373c2.562,0.253,5.047,0.971,7.384,2.125c0.745,0.372,1.585,0.432,2.375,0.168
	c0.786-0.265,1.423-0.819,1.793-1.561c0.322-0.648,0.412-1.396,0.245-2.1c-0.211-0.904-0.812-1.661-1.646-2.074
	c-3.007-1.499-6.22-2.421-9.543-2.749c-0.822-0.082-1.628,0.163-2.27,0.684C42.288,17.696,41.89,18.445,41.805,19.277"/>
<path fill="#403F41" d="M26.355,25.312c0.149,0.222,0.325,0.423,0.53,0.602c0.062,0.052,0.121,0.099,0.18,0.144
	c1.057,0.804,2.504,0.846,3.605,0.106c2.138-1.44,4.509-2.467,7.05-3.061c0.809-0.187,1.496-0.677,1.938-1.384
	c0.437-0.705,0.575-1.537,0.39-2.343c-0.164-0.706-0.569-1.338-1.146-1.777c-0.738-0.562-1.684-0.765-2.589-0.554
	c-3.274,0.759-6.339,2.089-9.107,3.954c-0.688,0.458-1.157,1.159-1.317,1.967C25.725,23.785,25.894,24.615,26.355,25.312"/>
<path fill="#403F41" d="M18.28,39.798c0.253,0.076,0.518,0.12,0.791,0.124c0.079,0.003,0.155,0.001,0.23,0
	c1.323-0.053,2.471-0.941,2.848-2.215c0.735-2.468,1.912-4.773,3.493-6.844c0.505-0.66,0.722-1.477,0.614-2.3
	c-0.113-0.824-0.533-1.556-1.191-2.058c-0.577-0.438-1.292-0.671-2.014-0.642c-0.927,0.035-1.786,0.479-2.354,1.22
	c-2.041,2.669-3.558,5.646-4.509,8.845c-0.236,0.791-0.154,1.632,0.237,2.357C16.822,39.019,17.479,39.554,18.28,39.798"/>
<path fill="#403F41" d="M160.492,62.02l-17.291-38.312c-0.434-1.037-1.446-1.714-2.571-1.714c-0.006,0-0.01,0.001-0.015,0.001
	s-0.012-0.001-0.016-0.001c-1.127,0-2.141,0.677-2.571,1.714L120.738,62.02c-0.591,1.418,0.088,3.037,1.513,3.621
	c0.346,0.144,0.703,0.211,1.054,0.211c1.097,0,2.129-0.646,2.576-1.72l14.734-33.24l14.735,33.24c0.446,1.073,1.48,1.72,2.575,1.72
	c0.352,0,0.709-0.067,1.055-0.211C160.405,65.057,161.082,63.438,160.492,62.02"/>
<path fill="#403F41" d="M405.429,49.82c0-0.77,0.701-1.197,1.623-1.197s1.538,0.429,1.538,1.197v7.654
	c0,0.775-0.616,1.205-1.538,1.205c-0.879,0-1.623-0.43-1.623-1.205V49.82z"/>
<path fill="#403F41" d="M418.009,49.82c0-0.77,0.704-1.197,1.623-1.197c0.924,0,1.536,0.429,1.536,1.197v7.654
	c0,0.775-0.612,1.205-1.536,1.205c-0.878,0-1.623-0.43-1.623-1.205V49.82z"/>
<path fill="#403F41" d="M374.546,41.286H356.82v-2.782c0-0.989,0.438-1.238,1.408-1.238h14.949c0.927,0,1.368,0.249,1.368,1.238
	L374.546,41.286L374.546,41.286z M374.546,48.432H356.82v-4.168h17.727V48.432L374.546,48.432z M374.546,54.585
	c0,0.945-0.441,1.243-1.368,1.243h-14.949c-0.97,0-1.408-0.298-1.408-1.243v-3.174h17.727L374.546,54.585L374.546,54.585z
	 M374.009,34.186h-8.706c0.005-0.004,0.005-0.013,0.011-0.018h-3.747c-0.002,0.005-0.005,0.014-0.011,0.018h-4.297
	c-2.679,0-3.938,1.095-3.938,3.723V55.23c0,2.683,1.214,3.771,3.938,3.771h16.75c2.771,0,4.034-1.089,4.034-3.771V37.908
	C378.043,35.28,376.78,34.186,374.009,34.186"/>
<path fill="#403F41" d="M345.058,46.348V57.93c-0.371,0.411-0.772,0.828-1.192,1.244h5.64c-0.278-0.4-0.55-0.822-0.809-1.296V45.555
	c0-2.583-1.066-3.923-3.544-3.923h-1.485v3.526h0.222C344.76,45.158,345.058,45.406,345.058,46.348"/>
<path fill="#403F41" d="M427.837,42.091v-6.054h14.306v4.764c0,0.99-0.532,1.29-1.607,1.29H427.837z M427.837,27.947
	c0-1.044,0.538-1.293,1.56-1.293h11.139c1.075,0,1.607,0.249,1.607,1.293v4.765h-14.306V27.947z M441.362,45.366
	c3.019,0,4.329-1.091,4.329-3.918V27.102c0-2.779-1.312-3.871-4.28-3.871h-12.843c-2.965,0-4.275,1.092-4.275,3.871v35.491v1.591
	c0,0,0.191,2.088,2.684,1.209l0.861-3.742V45.366H441.362z"/>
<path fill="#403F41" d="M508.855,26.306h-19.637c-0.968,0-1.754-0.783-1.754-1.755c0-0.971,0.786-1.754,1.754-1.754h19.637
	c0.967,0,1.754,0.783,1.754,1.754C510.609,25.522,509.822,26.306,508.855,26.306"/>
<path fill="#403F41" d="M471.552,32.466c-0.526,0-1.048-0.235-1.395-0.688c-0.59-0.772-0.441-1.87,0.324-2.457l9.177-7.032
	c0.771-0.587,1.871-0.441,2.463,0.327c0.588,0.768,0.44,1.871-0.327,2.459l-9.18,7.03C472.299,32.35,471.923,32.466,471.552,32.466"
	/>
<path fill="#403F41" d="M471.552,44.823c-0.526,0-1.048-0.237-1.395-0.688c-0.59-0.771-0.441-1.871,0.324-2.46l9.177-7.028
	c0.771-0.59,1.871-0.445,2.463,0.325c0.588,0.769,0.44,1.873-0.327,2.459l-9.18,7.031C472.299,44.706,471.923,44.823,471.552,44.823
	"/>
<path fill="#403F41" d="M437.561,56.035c-0.539,0-1.065-0.244-1.414-0.706c-0.575-0.776-0.416-1.876,0.362-2.453l7.636-5.696
	c0.778-0.58,1.877-0.42,2.459,0.357c0.574,0.775,0.416,1.873-0.359,2.454l-7.641,5.692C438.29,55.921,437.922,56.035,437.561,56.035
	"/>
<path fill="#403F41" d="M511.503,39.322h-24.931c-0.97,0-1.755-0.785-1.755-1.753c0-0.97,0.785-1.757,1.755-1.757h24.931
	c0.966,0,1.755,0.787,1.755,1.757C513.258,38.537,512.469,39.322,511.503,39.322"/>
<path fill="#403F41" d="M501.119,37.795v22.693c0,1.07-0.244,1.609-1.291,1.609h-2.946v3.541h3.793c2.777,0,3.872-1.308,3.872-4.271
	V37.795H501.119z"/>
<path fill="#403F41" d="M496.763,65.627h-5.704c-0.972,0-1.756-0.782-1.756-1.752s0.784-1.757,1.756-1.757h5.704
	c0.968,0,1.753,0.787,1.753,1.757S497.73,65.627,496.763,65.627"/>
<path fill="#403F41" d="M477.464,65.753c-0.968,0-1.757-0.784-1.757-1.754V38.671c0-0.966,0.789-1.755,1.757-1.755
	c0.969,0,1.751,0.789,1.751,1.755v25.328C479.215,64.969,478.433,65.753,477.464,65.753"/>
<path fill="#403F41" d="M421.278,63.766l-15.582,1.957c-0.907,0.113-1.732-0.529-1.848-1.436s0.525-1.734,1.436-1.85l15.582-1.957
	c0.903-0.113,1.734,0.527,1.849,1.437C422.826,62.823,422.184,63.648,421.278,63.766"/>
<path fill="#403F41" d="M419.811,45.484h-13.059c-0.913,0-1.655-0.742-1.655-1.656s0.742-1.655,1.655-1.655h13.059
	c0.912,0,1.65,0.741,1.65,1.655S420.723,45.484,419.811,45.484"/>
<path fill="#403F41" d="M419.811,36.037h-13.059c-0.913,0-1.655-0.741-1.655-1.654c0-0.915,0.742-1.656,1.655-1.656h13.059
	c0.912,0,1.65,0.741,1.65,1.656C421.461,35.296,420.723,36.037,419.811,36.037"/>
<path fill="#403F41" d="M413.28,63.768c-0.913,0-1.656-0.74-1.656-1.653V36.037c0-0.916,0.743-1.658,1.656-1.658
	c0.917,0,1.653,0.742,1.653,1.658v26.076C414.934,63.025,414.197,63.768,413.28,63.768"/>
<path fill="#403F41" d="M426.263,65.514c-0.747,0-1.438-0.475-1.674-1.227c-0.288-0.923,0.224-1.908,1.146-2.199l8.729-2.743
	c0.924-0.288,1.91,0.224,2.198,1.147c0.289,0.921-0.221,1.908-1.146,2.197l-8.728,2.744
	C426.614,65.489,426.438,65.514,426.263,65.514"/>
<path fill="#403F41" d="M446.105,65.753c-0.354,0-0.713-0.104-1.022-0.333c-10.979-7.913-12.566-20.312-12.629-20.836
	c-0.116-0.962,0.569-1.834,1.532-1.947c0.966-0.118,1.833,0.568,1.949,1.531c0.016,0.113,1.502,11.418,11.197,18.41
	c0.786,0.566,0.963,1.662,0.398,2.449C447.188,65.503,446.65,65.753,446.105,65.753"/>
<path fill="#403F41" d="M404.789,32.593c-0.308,0-0.621-0.082-0.905-0.251c-0.827-0.502-1.093-1.582-0.593-2.41l3.604-5.961
	c0.315-0.521,0.885-0.846,1.5-0.846h9c0.604,0,1.162,0.308,1.484,0.817l3.776,5.959c0.517,0.816,0.271,1.899-0.544,2.419
	c-0.821,0.521-1.9,0.277-2.42-0.54l-3.261-5.146h-7.05l-3.088,5.111C405.963,32.293,405.386,32.593,404.789,32.593"/>
<path fill="#403F41" d="M312.107,28.894H276.88c-1.025,0-1.854-0.829-1.854-1.854c0-1.021,0.828-1.851,1.854-1.851h35.227
	c1.024,0,1.854,0.829,1.854,1.851C313.961,28.064,313.132,28.894,312.107,28.894"/>
<path fill="#403F41" d="M309.937,46.15H279.05c-1.022,0-1.854-0.827-1.854-1.853c0-1.022,0.83-1.854,1.854-1.854h30.887
	c1.023,0,1.854,0.832,1.854,1.854C311.789,45.323,310.96,46.15,309.937,46.15"/>
<path fill="#403F41" d="M314.682,64.891h-40.373c-1.023,0-1.854-0.83-1.854-1.854s0.83-1.854,1.854-1.854h40.373
	c1.021,0,1.852,0.83,1.852,1.854C316.532,64.061,315.703,64.891,314.682,64.891"/>
<path fill="#403F41" d="M294.493,64.891c-1.021,0-1.854-0.83-1.854-1.854V27.039c0-1.022,0.831-1.851,1.854-1.851
	c1.023,0,1.854,0.828,1.854,1.851v35.997C296.347,64.061,295.518,64.891,294.493,64.891"/>
<path fill="#403F41" d="M360.884,30.126c-0.573,0-1.131-0.299-1.438-0.832l-2.812-4.904c-0.454-0.794-0.182-1.803,0.608-2.26
	c0.795-0.454,1.808-0.178,2.262,0.611l2.812,4.905c0.454,0.794,0.179,1.806-0.613,2.26
	C361.446,30.055,361.162,30.126,360.884,30.126"/>
<path fill="#403F41" d="M370.479,30.126c-0.278,0-0.562-0.071-0.823-0.22c-0.792-0.454-1.065-1.466-0.612-2.26l2.813-4.905
	c0.453-0.789,1.467-1.065,2.26-0.611c0.791,0.457,1.064,1.466,0.611,2.26l-2.812,4.904
	C371.608,29.827,371.052,30.126,370.479,30.126"/>
<path fill="#403F41" d="M379.415,31.009h-27.467c-0.915,0-1.654-0.737-1.654-1.654c0-0.912,0.739-1.654,1.654-1.654h27.467
	c0.913,0,1.653,0.742,1.653,1.654C381.069,30.271,380.328,31.009,379.415,31.009"/>
<path fill="#403F41" d="M365.681,36.67c-0.913,0-1.654-0.74-1.654-1.654v-5.661c0-0.912,0.741-1.654,1.654-1.654
	c0.915,0,1.653,0.742,1.653,1.654v5.661C367.334,35.93,366.596,36.67,365.681,36.67"/>
<path fill="#403F41" d="M346.768,34.601c-0.532,0-1.056-0.237-1.401-0.695c-3.893-5.138-4.661-5.902-5.636-6.864l-0.157-0.154
	c-0.688-0.685-0.692-1.794-0.013-2.481c0.685-0.691,1.797-0.695,2.482-0.012l0.155,0.152c1.072,1.062,1.92,1.902,5.966,7.242
	c0.583,0.774,0.432,1.874-0.34,2.456C347.507,34.485,347.133,34.601,346.768,34.601"/>
<path fill="#403F41" d="M345.992,45.154h-6.62c-0.967,0-1.754-0.785-1.754-1.756s0.787-1.752,1.754-1.752h6.62
	c0.969,0,1.754,0.782,1.754,1.752S346.961,45.154,345.992,45.154"/>
<path fill="#403F41" d="M365.518,65.746c-3.881,0-7.581-0.077-9.937-0.307c-4.994-0.479-7.826-3.291-9.253-5.338l-5.237,4.875
	c-0.711,0.664-1.821,0.621-2.479-0.084c-0.663-0.709-0.622-1.819,0.087-2.479l6.87-6.397c0.428-0.399,1.025-0.561,1.597-0.427
	c0.569,0.14,1.036,0.546,1.24,1.095c0.07,0.187,1.902,4.725,7.515,5.266c6.644,0.643,24.271,0,24.461-0.006
	c0.95-0.045,1.78,0.724,1.813,1.692c0.035,0.966-0.724,1.78-1.691,1.812C379.994,65.465,372.96,65.746,365.518,65.746"/>
</svg>
